<svg height="512" viewBox="0 0 512 512" width="512" xmlns="http://www.w3.org/2000/svg"><g id="Alert"><path d="m86.294 86.294h339.411v339.411h-339.411z" fill="#57565c" transform="matrix(.707 -.707 .707 .707 -106.039 256)"/><path d="m118.294 118.294h275.411v275.411h-275.411z" fill="#ffda44" transform="matrix(.707 -.707 .707 .707 -106.039 256)"/><path d="m272 312h-32l-8-176h48z" fill="#57565c"/><circle cx="256" cy="360" fill="#57565c" r="16"/><path d="m226.216 130.473a8 8 0 0 0 -2.208 5.89l8 176a8 8 0 0 0 7.992 7.637h32a8 8 0 0 0 7.992-7.637l8-176a8 8 0 0 0 -7.992-8.363h-48a8 8 0 0 0 -5.784 2.473zm45.412 13.527-7.273 160h-16.71l-7.273-160z"/><path d="m256 336a24 24 0 1 0 24 24 24.027 24.027 0 0 0 -24-24zm0 32a8 8 0 1 1 8-8 8.009 8.009 0 0 1 -8 8z"/><path d="m501.657 250.343-240-240a8 8 0 0 0 -11.314 0l-240 240a8 8 0 0 0 0 11.314l240 240a8 8 0 0 0 11.314 0l240-240a8 8 0 0 0 0-11.314zm-245.657 234.344-228.687-228.687 228.687-228.687 228.687 228.687z"/><path d="m250.343 55.6-194.743 194.743a8 8 0 0 0 0 11.314l194.743 194.743a8 8 0 0 0 11.314 0l194.743-194.743a8 8 0 0 0 0-11.314l-194.743-194.743a8 8 0 0 0 -11.314 0zm189.089 200.4-183.432 183.432-183.432-183.432 183.432-183.432z"/></g></svg>