<svg id="Layer_1" height="512" viewBox="0 0 256 256" width="512" xmlns="http://www.w3.org/2000/svg"><g><path d="m128 159.33c-17.275 0-31.33-14.054-31.33-31.33s14.055-31.33 31.33-31.33 31.33 14.054 31.33 31.33-14.055 31.33-31.33 31.33zm0-57.66c-14.519 0-26.33 11.812-26.33 26.33s11.812 26.33 26.33 26.33 26.33-11.812 26.33-26.33-11.811-26.33-26.33-26.33z" fill="#ebe7f2"/><path d="m128 68.735c-32.679 0-59.265 26.586-59.265 59.265 0 21.786 11.912 41.769 31.088 52.151.379.205.786.302 1.188.302.888 0 1.748-.475 2.2-1.31.657-1.214.206-2.731-1.008-3.389-16.823-9.108-27.534-26.287-28.403-45.254h9.338c1.381 0 2.5-1.119 2.5-2.5s-1.119-2.5-2.5-2.5h-9.339c.589-12.916 5.713-24.665 13.815-33.696l6.896 6.896c.488.488 1.128.732 1.768.732s1.279-.244 1.768-.732c.977-.976.977-2.559 0-3.535l-6.924-6.924c9.117-8.463 21.134-13.839 34.379-14.443v9.994c0 1.381 1.119 2.5 2.5 2.5s2.5-1.119 2.5-2.5v-9.994c13.245.604 25.262 5.98 34.379 14.443l-6.924 6.924c-.977.976-.977 2.559 0 3.535.488.488 1.128.732 1.768.732s1.279-.244 1.768-.732l6.896-6.896c8.102 9.031 13.226 20.78 13.815 33.696h-9.339c-1.381 0-2.5 1.119-2.5 2.5s1.119 2.5 2.5 2.5h9.337c-.86 18.578-11.247 35.574-27.553 44.784-1.202.679-1.626 2.204-.947 3.406.68 1.203 2.204 1.625 3.406.947 18.603-10.507 30.159-30.294 30.159-51.638-.001-32.678-26.587-59.264-59.266-59.264z" fill="#ed9abc"/><g fill="#846f75"><path d="m128 139.727c6.466 0 11.727-5.261 11.727-11.727 0-5.608-3.959-10.303-9.227-11.452v-22.102c0-1.381-1.119-2.5-2.5-2.5s-2.5 1.119-2.5 2.5v22.101c-5.268 1.15-9.227 5.845-9.227 11.452 0 6.467 5.261 11.728 11.727 11.728zm0-18.454c3.709 0 6.727 3.018 6.727 6.727s-3.018 6.727-6.727 6.727-6.727-3.018-6.727-6.727 3.018-6.727 6.727-6.727z"/><path d="m226.488 105.058c-.001 0-.002-.001-.003-.001l-26.569-6.847 13.947-23.631c2.836-4.816 2.056-10.94-1.896-14.893l-15.654-15.655c-3.953-3.951-10.076-4.732-14.895-1.895l-23.63 13.947-6.847-26.574c-1.402-5.41-6.284-9.188-11.872-9.188h-22.139c-5.589 0-10.471 3.779-11.872 9.191l-6.848 26.571-23.63-13.948c-4.817-2.835-10.94-2.054-14.893 1.897l-15.654 15.655c-3.952 3.953-4.732 10.077-1.896 14.895l13.947 23.628-26.572 6.848c-5.41 1.401-9.189 6.283-9.189 11.872v22.138c0 5.589 3.779 10.471 9.192 11.874l26.569 6.846-13.947 23.631c-2.836 4.816-2.056 10.941 1.896 14.894l15.654 15.655c3.95 3.951 10.077 4.73 14.896 1.894l23.628-13.947 6.849 26.573c1.401 5.411 6.282 9.19 11.871 9.19h22.139c5.588 0 10.47-3.779 11.873-9.193l6.846-26.57 23.632 13.948c4.819 2.836 10.942 2.056 14.893-1.896l15.654-15.654c3.952-3.953 4.732-10.078 1.896-14.896l-13.946-23.629 26.572-6.847c5.41-1.401 9.189-6.284 9.189-11.873v-22.138c-.001-5.589-3.781-10.471-9.191-11.872zm4.19 34.01c0 3.311-2.238 6.203-5.44 7.032l-29.788 7.675c-.761.196-1.385.738-1.686 1.464s-.243 1.551.156 2.227l15.635 26.489c1.68 2.853 1.218 6.48-1.123 8.822l-15.654 15.654c-2.341 2.341-5.968 2.803-8.818 1.125l-26.492-15.636c-.677-.4-1.501-.458-2.228-.157-.726.301-1.268.925-1.464 1.686l-7.674 29.785c-.831 3.206-3.723 5.444-7.032 5.444h-22.139c-3.31 0-6.201-2.238-7.03-5.44l-7.677-29.789c-.196-.761-.738-1.385-1.464-1.686-.308-.127-.633-.19-.957-.19-.441 0-.881.117-1.271.347l-26.487 15.634c-2.853 1.679-6.48 1.219-8.822-1.122l-15.654-15.654c-2.341-2.342-2.803-5.969-1.124-8.82l15.636-26.491c.399-.676.457-1.501.156-2.227s-.925-1.269-1.686-1.464l-29.785-7.674c-3.205-.83-5.443-3.722-5.443-7.033v-22.139c0-3.31 2.238-6.202 5.44-7.031l29.788-7.676c.761-.196 1.385-.738 1.686-1.464s.243-1.551-.156-2.228l-15.636-26.489c-1.68-2.852-1.218-6.479 1.123-8.821l15.654-15.654c2.342-2.34 5.971-2.801 8.819-1.125l26.49 15.637c.676.399 1.5.457 2.228.157.726-.3 1.268-.925 1.464-1.686l7.676-29.787c.83-3.204 3.721-5.442 7.031-5.442h22.139c3.31 0 6.201 2.238 7.031 5.439l7.675 29.789c.196.761.738 1.385 1.464 1.686.728.301 1.552.244 2.228-.157l26.49-15.635c2.852-1.678 6.48-1.216 8.82 1.123l15.654 15.654c2.341 2.341 2.803 5.969 1.124 8.819l-15.636 26.49c-.399.677-.457 1.502-.156 2.228s.925 1.268 1.686 1.464l29.786 7.676c3.204.831 5.442 3.722 5.442 7.032v22.139z"/><path d="m128.489 163.52c-10.645 0-19.305 8.66-19.305 19.304s8.66 19.304 19.305 19.304 19.304-8.66 19.304-19.304-8.659-19.304-19.304-19.304zm0 33.608c-7.888 0-14.305-6.417-14.305-14.304s6.417-14.304 14.305-14.304c7.887 0 14.304 6.417 14.304 14.304s-6.417 14.304-14.304 14.304z"/></g><path d="m126.466 191.003c-.663 0-1.299-.264-1.768-.732l-6.235-6.236c-.977-.976-.977-2.559 0-3.536.977-.976 2.559-.976 3.535 0l4.468 4.468 8.515-8.514c.977-.977 2.559-.977 3.535 0 .977.976.977 2.559 0 3.535l-10.282 10.282c-.469.47-1.105.733-1.768.733z" fill="#ed9abc"/></g></svg>